Two short films by Brazilian director Sergio Bianchi, both based on short stories from Julio Cortazar's Bestiario. The short films are Omnibus (1972) and A Segunda Besta (1977).

   General
      Format : AVI
      Format/Info : Audio Video Interleave
      File size : 437 MiB
      Duration : 31mn 33s
      Overall bit rate : 1 937 Kbps
      Writing library : VirtualDub build 0/release
   Video #0
      ID : 0
      Format : MPEG-4 Visual
      Format profile : AdvancedSimple@L5
      Format settings, BVOP : Yes
      Format settings, QPel : No
      Format settings, GMC : No warppoints
      Format settings, Matrix : Default (MPEG)
      Muxing mode : Packed bitstream
      Codec ID : XVID
      Codec ID/Hint : XviD
      Duration : 31mn 33s
      Bit rate : 1 735 Kbps
      Width : 640 pixels
      Height : 464 pixels
      Display aspect ratio : 1.379
      Frame rate : 23.976 fps
      Resolution : 24 bits
      Colorimetry : 4:2:0
      Scan type : Progressive
      Bits/(Pixel*Frame) : 0.244
      Stream size : 392 MiB (90%)
      Writing library : XviD 1.2.0.dev47 (UTC 2006-11-01)
   Audio #1
      ID : 1
      Format : AC-3
      Format/Info : Audio Coding 3
      Codec ID : 2000
      Duration : 31mn 33s
      Bit rate mode : Constant
      Bit rate : 192 Kbps
      Channel(s) : 2 channels
      Channel positions : L R
      Sampling rate : 48.0 KHz
      Stream size : 43.3 MiB (10%)
      Alignment : Split accross interleaves
      Interleave, duration : 42 ms (1.00 video frame)
      Interleave, preload duration : 500 ms

Films are not at IMDB

Subtitles not necessary

Omnibus & A Segunda Besta - Sergio Bianchi